<?xml version="1.0" encoding="UTF-8"?>
<svg id="a" xmlns="http://www.w3.org/2000/svg" viewBox="0 0 1920 1080">
    <defs>
        <style>.b,.c{fill:#fff;}.c{opacity:.5;}

            .w, .x, .y, .z {
                animation-name: wave;
                animation-timing-function: ease-in-out;
                animation-iteration-count: infinite;
                animation-direction: alternate-reverse;
            }
            
            .w {
                animation-duration: 7s;
                animation-delay: -1s;
            }
            .x {
                animation-duration: 9s;
                animation-delay: -2s;
            }
            .y {
                animation-duration: 11s;
                animation-delay: -3s;
            }
            .z {
                animation-duration: 13s;
                animation-delay: -4s;
            }
            
            @keyframes wave {
                0% {
                    transform: translateX(-20%);
                }
                25% {
                    transform: translateX(40%);
                }
                50% {
                    transform: translateX(0%);
                }
                75% {
                    transform: translateX(20%);
                }
                100% {
                    transform: translateX(-40%);
                }
            }
        
        </style>
    </defs>
    <path class="b z"
        d="M-1904.8391,1052.2143c107.4216,4.7038,260.4673,10.6515,445.3787,15.2381,333.0044,8.26,606.4216,8.0644,1034.226,3.9773,767.7346-7.3347,819.0684-15.6077,1281.7427-16.9297,391.8663-1.1197,571.5419,4.1962,938.721,8.381,439.0991,5.0045,1069.4326,7.5145,1860.3125-5.3334v22.4524H-1903.3692l-1.47-27.7857Z" />
    <path class="c y"
        d="M3274.1501,1024.4286c-107.4216,9.4076-260.4673,21.303-445.3787,30.4762-333.0044,16.52-606.4216,16.1288-1034.226,7.9546-767.7346-14.6693-819.0684-31.2153-1281.7427-33.8594-391.8663-2.2394-571.5419,8.3925-938.721,16.762-439.0991,10.0089-1069.4326,15.0291-1860.3125-10.6667v44.9048H3272.6802l1.47-55.5714Z" />
    <path class="c x"
        d="M3178.1355,1018.6666c-790.8799,25.6958-1421.2134,20.6757-1860.3125,10.6667-367.1791-8.3695-546.8547-19.0013-938.7211-16.762-462.6743,2.644-514.0081,19.1901-1281.7427,33.8594-427.8043,8.1742-701.2216,8.5654-1034.226-7.9546-184.9114-9.1732-337.957-21.0686-445.3787-30.4762,.6348,24,1.2698,48,1.9045,72H3178.1355v-61.3334Z" />
    <path class="c w"
        d="M4049.7544,1023c-107.4216,9.4076-260.4673,21.303-445.3784,30.4762-333.0044,16.52-606.4219,16.1288-1034.2261,7.9546-767.7346-14.6693-819.0684-31.2153-1281.7427-33.8594-391.8663-2.2394-571.5419,8.3925-938.7211,16.762-439.0991,10.0089-1069.4326,15.0291-1860.3124-10.6667v46.3334H4048.2468c.5027-19,1.0051-38,1.5076-57Z" />
</svg>